<svg width="24" height="22" viewBox="0 0 24 22" fill="none" xmlns="http://www.w3.org/2000/svg">
<g clip-path="url(#clip0_293_3646)">
<path d="M23.4179 6.26513L12.5429 0.265134C12.3764 0.173213 12.1893 0.125 11.9991 0.125C11.8089 0.125 11.6219 0.173213 11.4554 0.265134L0.580362 6.26513C0.404523 6.36242 0.257954 6.50504 0.155891 6.67815C0.0538291 6.85126 0 7.04855 0 7.24951C0 7.45047 0.0538291 7.64776 0.155891 7.82087C0.257954 7.99398 0.404523 8.13659 0.580362 8.23388L2.62411 9.35888V13.8364C2.62337 14.2973 2.79337 14.7422 3.1013 15.0851C4.37067 16.5036 7.21786 18.8754 11.9991 18.8754C13.2689 18.8823 14.5327 18.7006 15.7491 18.3364V20.7504C15.7491 21.0488 15.8676 21.335 16.0786 21.5459C16.2896 21.7569 16.5757 21.8754 16.8741 21.8754C17.1725 21.8754 17.4586 21.7569 17.6696 21.5459C17.8806 21.335 17.9991 21.0488 17.9991 20.7504V17.3867C19.0856 16.7865 20.0649 16.01 20.8969 15.0889C21.2049 14.7459 21.3748 14.3011 21.3741 13.8401V9.36263L23.4179 8.23763C23.5937 8.14034 23.7403 7.99773 23.8423 7.82462C23.9444 7.65151 23.9982 7.45422 23.9982 7.25326C23.9982 7.0523 23.9444 6.85501 23.8423 6.6819C23.7403 6.50879 23.5937 6.36617 23.4179 6.26888V6.26513ZM11.9991 2.53576L20.5454 7.25045L17.4366 8.96607C17.4308 8.96265 17.4251 8.95889 17.4197 8.95482L12.5447 6.26513C12.2845 6.13061 11.982 6.10294 11.7016 6.18799C11.4212 6.27305 11.1851 6.46413 11.0435 6.72058C10.9018 6.97704 10.8658 7.27865 10.943 7.56126C11.0203 7.84387 11.2048 8.08519 11.4572 8.23388L15.1135 10.2486L11.9991 11.9661L3.45286 7.25045L11.9991 2.53576ZM11.9991 16.6254C8.20974 16.6254 5.93817 14.8376 4.87411 13.6939V10.6001L11.4554 14.232C11.6219 14.3239 11.8089 14.3721 11.9991 14.3721C12.1893 14.3721 12.3764 14.3239 12.5429 14.232L15.7491 12.4667V15.957C14.5512 16.4098 13.2797 16.6364 11.9991 16.6254ZM19.1241 13.6939C18.7791 14.0636 18.4027 14.4027 17.9991 14.7073V11.2245L19.1241 10.6039V13.6939Z" fill="black"/>
</g>
<defs>
<clipPath id="clip0_293_3646">
<rect width="24" height="21.7504" fill="white" transform="translate(0 0.125)"/>
</clipPath>
</defs>
</svg>
