<svg width="20" height="20" viewBox="0 0 20 20" fill="none" xmlns="http://www.w3.org/2000/svg">
<path d="M17.5 0.625488H2.5C2.00272 0.625488 1.52581 0.823032 1.17417 1.17466C0.822544 1.52629 0.625 2.00321 0.625 2.50049V17.5005C0.625 17.9978 0.822544 18.4747 1.17417 18.8263C1.52581 19.1779 2.00272 19.3755 2.5 19.3755H17.5C17.9973 19.3755 18.4742 19.1779 18.8258 18.8263C19.1775 18.4747 19.375 17.9978 19.375 17.5005V2.50049C19.375 2.00321 19.1775 1.52629 18.8258 1.17466C18.4742 0.823032 17.9973 0.625488 17.5 0.625488ZM17.125 17.1255H2.875V2.87549H17.125V17.1255ZM5.125 10.0005C5.125 9.70212 5.24353 9.41597 5.4545 9.20499C5.66548 8.99401 5.95163 8.87549 6.25 8.87549H8.875V6.25049C8.875 5.95212 8.99353 5.66597 9.2045 5.45499C9.41548 5.24401 9.70163 5.12549 10 5.12549C10.2984 5.12549 10.5845 5.24401 10.7955 5.45499C11.0065 5.66597 11.125 5.95212 11.125 6.25049V8.87549H13.75C14.0484 8.87549 14.3345 8.99401 14.5455 9.20499C14.7565 9.41597 14.875 9.70212 14.875 10.0005C14.875 10.2989 14.7565 10.585 14.5455 10.796C14.3345 11.007 14.0484 11.1255 13.75 11.1255H11.125V13.7505C11.125 14.0489 11.0065 14.335 10.7955 14.546C10.5845 14.757 10.2984 14.8755 10 14.8755C9.70163 14.8755 9.41548 14.757 9.2045 14.546C8.99353 14.335 8.875 14.0489 8.875 13.7505V11.1255H6.25C5.95163 11.1255 5.66548 11.007 5.4545 10.796C5.24353 10.585 5.125 10.2989 5.125 10.0005Z" fill="#DD5928"/>
</svg>
