<svg width="20" height="20" viewBox="0 0 20 20" fill="none" xmlns="http://www.w3.org/2000/svg">
    <g clip-path="url(#clip0_730_1778)">
    <path d="M19.1875 17.25H17.625V2.875H17.9375C18.1861 2.875 18.4246 2.77623 18.6004 2.60041C18.7762 2.4246 18.875 2.18614 18.875 1.9375C18.875 1.68886 18.7762 1.4504 18.6004 1.27459C18.4246 1.09877 18.1861 1 17.9375 1H4.1875C3.93886 1 3.7004 1.09877 3.52459 1.27459C3.34877 1.4504 3.25 1.68886 3.25 1.9375C3.25 2.18614 3.34877 2.4246 3.52459 2.60041C3.7004 2.77623 3.93886 2.875 4.1875 2.875H4.5V17.25H2.9375C2.68886 17.25 2.4504 17.3488 2.27459 17.5246C2.09877 17.7004 2 17.9389 2 18.1875C2 18.4361 2.09877 18.6746 2.27459 18.8504C2.4504 19.0262 2.68886 19.125 2.9375 19.125H19.1875C19.4361 19.125 19.6746 19.0262 19.8504 18.8504C20.0262 18.6746 20.125 18.4361 20.125 18.1875C20.125 17.9389 20.0262 17.7004 19.8504 17.5246C19.6746 17.3488 19.4361 17.25 19.1875 17.25ZM6.375 2.875H15.75V17.25H13.875V14.4375C13.875 14.1889 13.7762 13.9504 13.6004 13.7746C13.4246 13.5988 13.1861 13.5 12.9375 13.5H9.1875C8.93886 13.5 8.7004 13.5988 8.52459 13.7746C8.34877 13.9504 8.25 14.1889 8.25 14.4375V17.25H6.375V2.875ZM12 17.25H10.125V15.375H12V17.25ZM7.625 5.0625C7.625 4.81386 7.72377 4.5754 7.89959 4.39959C8.0754 4.22377 8.31386 4.125 8.5625 4.125H9.5C9.74864 4.125 9.9871 4.22377 10.1629 4.39959C10.3387 4.5754 10.4375 4.81386 10.4375 5.0625C10.4375 5.31114 10.3387 5.5496 10.1629 5.72541C9.9871 5.90123 9.74864 6 9.5 6H8.5625C8.31386 6 8.0754 5.90123 7.89959 5.72541C7.72377 5.5496 7.625 5.31114 7.625 5.0625ZM11.6875 5.0625C11.6875 4.81386 11.7863 4.5754 11.9621 4.39959C12.1379 4.22377 12.3764 4.125 12.625 4.125H13.5625C13.8111 4.125 14.0496 4.22377 14.2254 4.39959C14.4012 4.5754 14.5 4.81386 14.5 5.0625C14.5 5.31114 14.4012 5.5496 14.2254 5.72541C14.0496 5.90123 13.8111 6 13.5625 6H12.625C12.3764 6 12.1379 5.90123 11.9621 5.72541C11.7863 5.5496 11.6875 5.31114 11.6875 5.0625ZM7.625 8.1875C7.625 7.93886 7.72377 7.7004 7.89959 7.52459C8.0754 7.34877 8.31386 7.25 8.5625 7.25H9.5C9.74864 7.25 9.9871 7.34877 10.1629 7.52459C10.3387 7.7004 10.4375 7.93886 10.4375 8.1875C10.4375 8.43614 10.3387 8.6746 10.1629 8.85041C9.9871 9.02623 9.74864 9.125 9.5 9.125H8.5625C8.31386 9.125 8.0754 9.02623 7.89959 8.85041C7.72377 8.6746 7.625 8.43614 7.625 8.1875ZM11.6875 8.1875C11.6875 7.93886 11.7863 7.7004 11.9621 7.52459C12.1379 7.34877 12.3764 7.25 12.625 7.25H13.5625C13.8111 7.25 14.0496 7.34877 14.2254 7.52459C14.4012 7.7004 14.5 7.93886 14.5 8.1875C14.5 8.43614 14.4012 8.6746 14.2254 8.85041C14.0496 9.02623 13.8111 9.125 13.5625 9.125H12.625C12.3764 9.125 12.1379 9.02623 11.9621 8.85041C11.7863 8.6746 11.6875 8.43614 11.6875 8.1875ZM7.625 11.3125C7.625 11.0639 7.72377 10.8254 7.89959 10.6496C8.0754 10.4738 8.31386 10.375 8.5625 10.375H9.5C9.74864 10.375 9.9871 10.4738 10.1629 10.6496C10.3387 10.8254 10.4375 11.0639 10.4375 11.3125C10.4375 11.5611 10.3387 11.7996 10.1629 11.9754C9.9871 12.1512 9.74864 12.25 9.5 12.25H8.5625C8.31386 12.25 8.0754 12.1512 7.89959 11.9754C7.72377 11.7996 7.625 11.5611 7.625 11.3125ZM11.6875 11.3125C11.6875 11.0639 11.7863 10.8254 11.9621 10.6496C12.1379 10.4738 12.3764 10.375 12.625 10.375H13.5625C13.8111 10.375 14.0496 10.4738 14.2254 10.6496C14.4012 10.8254 14.5 11.0639 14.5 11.3125C14.5 11.5611 14.4012 11.7996 14.2254 11.9754C14.0496 12.1512 13.8111 12.25 13.5625 12.25H12.625C12.3764 12.25 12.1379 12.1512 11.9621 11.9754C11.7863 11.7996 11.6875 11.5611 11.6875 11.3125Z" fill="#6B6B6B"/>
    </g>
    <defs>
    <clipPath id="clip0_730_1778">
    <rect width="20" height="20" fill="white"/>
    </clipPath>
    </defs>
</svg>
