<svg width="28" height="28" viewBox="0 0 28 28" fill="none" xmlns="http://www.w3.org/2000/svg">
<g clip-path="url(#clip0_293_3642)">
<path d="M20.1002 4.18389L7.70192 3.98397C7.45565 3.97993 7.21099 4.02444 6.98193 4.11497C6.75286 4.20551 6.54388 4.34028 6.36691 4.51161C6.18995 4.68293 6.04848 4.88744 5.95058 5.11346C5.85268 5.33947 5.80027 5.58256 5.79634 5.82884L5.54553 21.9142C5.53785 22.4113 5.72783 22.891 6.07372 23.248C6.41961 23.6049 6.8931 23.81 7.3901 23.818L19.7883 24.0179C19.899 24.0198 20.0095 24.012 20.1188 23.9945C20.5546 23.9249 20.952 23.7039 21.2409 23.3703C21.5298 23.0366 21.6918 22.6117 21.6983 22.1704L21.9491 6.08502C21.9525 5.83879 21.9074 5.59428 21.8164 5.36547C21.7253 5.13665 21.5901 4.92802 21.4184 4.75148C21.2467 4.57493 21.0419 4.43394 20.8158 4.33655C20.5896 4.23917 20.3464 4.18729 20.1002 4.18389ZM19.4491 21.7613L7.80093 21.5733L8.04086 6.23874L19.689 6.4267L19.4491 21.7613ZM9.49959 8.88779C9.50443 8.58954 9.62751 8.30542 9.84179 8.09791C10.0561 7.89039 10.344 7.77646 10.6422 7.78118L17.0389 7.88465C17.3239 7.8828 17.5991 7.9892 17.8087 8.18237C18.0182 8.37554 18.1467 8.64106 18.1681 8.9253C18.1894 9.20953 18.1021 9.49127 17.9238 9.71361C17.7454 9.93594 17.4893 10.0823 17.2072 10.1231C17.142 10.1334 17.0761 10.1382 17.0101 10.1375L10.6062 10.0304C10.308 10.0256 10.0238 9.90251 9.81632 9.68824C9.6088 9.47396 9.49487 9.18605 9.49959 8.88779ZM9.44428 12.6364C9.44666 12.4887 9.47812 12.3428 9.53689 12.2072C9.59565 12.0716 9.68056 11.9489 9.78675 11.8461C9.89295 11.7433 10.0184 11.6625 10.1558 11.6082C10.2933 11.5539 10.4401 11.5272 10.5878 11.5297L16.9865 11.6338C17.2675 11.6393 17.5363 11.7497 17.74 11.9435C17.9436 12.1372 18.0674 12.4001 18.0869 12.6805C18.1064 12.9609 18.0202 13.2384 17.8453 13.4585C17.6705 13.6785 17.4196 13.8251 17.142 13.8695C17.0769 13.8798 17.0109 13.8847 16.945 13.8839L10.5472 13.7797C10.2495 13.7739 9.96623 13.6503 9.75949 13.436C9.55275 13.2217 9.4394 12.9342 9.44428 12.6364ZM9.37972 16.3865C9.38455 16.0883 9.50764 15.8042 9.72191 15.5967C9.93619 15.3891 10.2241 15.2752 10.5224 15.2799L13.7246 15.3325C14.0061 15.3366 14.2758 15.4461 14.4804 15.6394C14.6851 15.8327 14.8099 16.0957 14.8301 16.3764C14.8503 16.6572 14.7646 16.9354 14.5898 17.156C14.415 17.3766 14.1638 17.5237 13.8858 17.5682C13.8206 17.5787 13.7546 17.5832 13.6886 17.5817L10.4894 17.5306C10.3413 17.5286 10.1951 17.4974 10.0592 17.4388C9.92319 17.3801 9.80012 17.2953 9.69703 17.189C9.59393 17.0827 9.51283 16.9571 9.45838 16.8194C9.40393 16.6817 9.3772 16.5346 9.37972 16.3865Z" fill="black"/>
</g>
<defs>
<clipPath id="clip0_293_3642">
<rect width="24" height="24" fill="white" transform="translate(0 4.04688) rotate(-9.09048)"/>
</clipPath>
</defs>
</svg>
