<svg width="20" height="19" viewBox="0 0 20 19" fill="none" xmlns="http://www.w3.org/2000/svg">
<path d="M18.25 0.125H6.25C5.95163 0.125 5.66548 0.243526 5.4545 0.454505C5.24353 0.665483 5.125 0.951631 5.125 1.25V4.625H1.75C1.45163 4.625 1.16548 4.74353 0.954505 4.9545C0.743526 5.16548 0.625 5.45163 0.625 5.75V17.75C0.625 18.0484 0.743526 18.3345 0.954505 18.5455C1.16548 18.7565 1.45163 18.875 1.75 18.875H13.75C14.0484 18.875 14.3345 18.7565 14.5455 18.5455C14.7565 18.3345 14.875 18.0484 14.875 17.75V14.375H18.25C18.5484 14.375 18.8345 14.2565 19.0455 14.0455C19.2565 13.8345 19.375 13.5484 19.375 13.25V1.25C19.375 0.951631 19.2565 0.665483 19.0455 0.454505C18.8345 0.243526 18.5484 0.125 18.25 0.125ZM12.625 16.625H2.875V6.875H12.625V16.625ZM17.125 12.125H14.875V5.75C14.875 5.45163 14.7565 5.16548 14.5455 4.9545C14.3345 4.74353 14.0484 4.625 13.75 4.625H7.375V2.375H17.125V12.125Z" fill="#6B6B6B"/>
</svg>
