<svg width="13" height="14" viewBox="0 0 13 14" fill="none" xmlns="http://www.w3.org/2000/svg">
<path d="M12.2808 7.40986L7.1521 12.5349C6.44861 13.2381 5.49458 13.6331 4.49988 13.6329C3.50517 13.6327 2.55128 13.2374 1.84804 12.5339C1.1448 11.8304 0.749824 10.8764 0.75 9.88169C0.750176 8.88699 1.14549 7.93309 1.84898 7.22986L7.98398 1.11173C8.45299 0.642961 9.08902 0.379707 9.75214 0.379883C10.0805 0.37997 10.4056 0.444728 10.7089 0.57046C11.0122 0.696191 11.2878 0.880434 11.5199 1.11267C11.752 1.3449 11.9361 1.62058 12.0617 1.92396C12.1873 2.22734 12.2518 2.55249 12.2518 2.88083C12.2517 3.20917 12.1869 3.53428 12.0612 3.8376C11.9355 4.14091 11.7512 4.41649 11.519 4.64861L11.5083 4.65861L5.52085 10.4224C5.44985 10.4906 5.3661 10.5443 5.27438 10.5802C5.18266 10.6161 5.08475 10.6336 4.98627 10.6317C4.88778 10.6298 4.79063 10.6085 4.70037 10.569C4.61012 10.5296 4.52851 10.4727 4.46023 10.4017C4.39194 10.3307 4.3383 10.247 4.30238 10.1553C4.26646 10.0635 4.24896 9.96563 4.25088 9.86715C4.25279 9.76866 4.27409 9.67151 4.31355 9.58125C4.353 9.49099 4.40986 9.40939 4.48085 9.3411L10.4627 3.58361C10.6497 3.39547 10.7543 3.14076 10.7535 2.87551C10.7526 2.61027 10.6465 2.35621 10.4584 2.16923C10.3652 2.07665 10.2547 2.00332 10.1332 1.95344C10.0117 1.90355 9.88159 1.87809 9.75026 1.87849C9.48501 1.87931 9.23095 1.98547 9.04397 2.17361L2.90898 8.28986C2.48703 8.71196 2.25005 9.2844 2.25017 9.88123C2.25023 10.1768 2.30849 10.4694 2.42164 10.7424C2.53478 11.0154 2.70059 11.2634 2.9096 11.4724C3.11861 11.6813 3.36672 11.847 3.63977 11.96C3.91282 12.0731 4.20546 12.1312 4.50098 12.1312C5.09781 12.131 5.67016 11.8938 6.0921 11.4717L11.2208 6.34673C11.2906 6.27697 11.3734 6.22163 11.4646 6.18387C11.5557 6.14611 11.6534 6.12668 11.7521 6.12668C11.8508 6.12668 11.9485 6.14611 12.0396 6.18387C12.1308 6.22163 12.2136 6.27697 12.2833 6.34673C12.3531 6.4165 12.4085 6.49932 12.4462 6.59047C12.484 6.68162 12.5034 6.77932 12.5034 6.87798C12.5034 6.97664 12.484 7.07434 12.4462 7.16549C12.4085 7.25664 12.3531 7.33947 12.2833 7.40923L12.2808 7.40986Z" fill="#8C8C8C"/>
</svg>
