<svg width="16" height="17" viewBox="0 0 16 17" fill="none" xmlns="http://www.w3.org/2000/svg">
<path d="M15.04 8.6665C15.04 8.1465 14.9933 7.6465 14.9067 7.1665H8V10.0032H11.9467C11.7767 10.9198 11.26 11.6965 10.4833 12.2165V14.0565H12.8533C14.24 12.7798 15.04 10.8998 15.04 8.6665Z" fill="#4285F4"/>
<path d="M7.99999 15.8336C9.97999 15.8336 11.64 15.1769 12.8533 14.0569L10.4833 12.2169C9.82666 12.6569 8.98665 12.9169 7.99999 12.9169C6.08999 12.9169 4.47332 11.6269 3.89665 9.89355H1.44666V11.7936C2.65332 14.1902 5.13332 15.8336 7.99999 15.8336Z" fill="#34A853"/>
<path d="M3.89669 9.89321C3.75002 9.45321 3.66669 8.98321 3.66669 8.49988C3.66669 8.01654 3.75002 7.54654 3.89669 7.10654V5.20654H1.44669C0.933354 6.22845 0.666235 7.35628 0.666688 8.49988C0.666688 9.68321 0.950021 10.8032 1.44669 11.7932L3.89669 9.89321Z" fill="#FBBC05"/>
<path d="M7.99999 4.08317C9.07665 4.08317 10.0433 4.45317 10.8033 5.17984L12.9067 3.0765C11.6367 1.89317 9.97666 1.1665 7.99999 1.1665C5.13332 1.1665 2.65332 2.80984 1.44666 5.2065L3.89665 7.1065C4.47332 5.37317 6.08999 4.08317 7.99999 4.08317Z" fill="#EA4335"/>
</svg>
