<svg width="22" height="32" viewBox="0 0 22 32" fill="none" xmlns="http://www.w3.org/2000/svg">
<path d="M4.99341 25.0839C5.14053 25.4395 5.41088 25.7303 5.75493 25.9028C6.09897 26.0754 6.49367 26.1182 6.86671 26.0234V22.2246L4.99341 23.5469V25.0839Z" fill="#DD5928"/>
<path d="M6.86689 6.76245C6.94974 6.04431 7.16611 5.34798 7.50486 4.70936C8.18884 3.48232 9.27422 2.52801 10.5787 2.0067C11.6653 2.48972 12.5853 3.28257 13.2234 4.28598C13.7859 5.19523 14.0943 6.23867 14.1165 7.30762V13.6873L15.9898 12.365V7.28442C15.9714 5.8739 15.5705 4.49483 14.8299 3.29423C13.9053 1.8386 12.5307 0.724675 10.9151 0.121794L10.5961 0L10.2713 0.115994C8.39171 0.767425 6.81825 2.08897 5.85195 3.8278C5.39176 4.69245 5.10231 5.6376 4.99939 6.61166V20.1018L6.87269 18.7852L6.86689 6.76245Z" fill="#DD5928"/>
<path d="M14.1163 26.0233C14.338 26.0948 14.5729 26.1157 14.8037 26.0846C15.0345 26.0535 15.2554 25.9711 15.4503 25.8435C15.7087 25.6565 15.8983 25.3894 15.9896 25.0837V15.8042L14.1163 17.1091V26.0233Z" fill="#DD5928"/>
<path d="M13.0377 22.1025L11.1644 23.5061V31.991C11.4248 32.0174 11.6879 31.9847 11.9339 31.8953C12.1799 31.806 12.4026 31.6622 12.5854 31.4749C12.8836 31.1469 13.0454 30.7175 13.0377 30.2743V22.1025Z" fill="#DD5928"/>
<path d="M8.16005 30.2743C8.15241 30.7175 8.31421 31.1469 8.61242 31.4749C8.79519 31.6622 9.01788 31.806 9.2639 31.8953C9.50992 31.9847 9.77293 32.0174 10.0334 31.991V23.5061L8.16005 22.1025V30.2743Z" fill="#DD5928"/>
<path d="M1.8733 22.8797V13.258L2.73746 14.0525L4.00759 12.6722L0 9.00098V26.4929L19.2202 12.9332V22.4911L18.3271 21.6385L17.0337 22.9957L21.0935 26.8815V9.31996L1.8733 22.8797Z" fill="#DD5928"/>
<path d="M10.5439 8.20662C11.2101 8.20662 11.7502 7.66652 11.7502 7.00028C11.7502 6.33404 11.2101 5.79395 10.5439 5.79395C9.87762 5.79395 9.33752 6.33404 9.33752 7.00028C9.33752 7.66652 9.87762 8.20662 10.5439 8.20662Z" fill="#DD5928"/>
</svg>
