<svg width="21" height="21" viewBox="0 0 21 21" fill="none" xmlns="http://www.w3.org/2000/svg">
<path d="M19.8051 5.49163L15.6154 1.30288C15.2638 0.951373 14.787 0.753906 14.2898 0.753906C13.7926 0.753906 13.3158 0.951373 12.9641 1.30288L1.4029 12.8632C1.22819 13.0368 1.08967 13.2434 0.995372 13.471C0.90107 13.6985 0.852855 13.9425 0.853522 14.1888V18.3785C0.853522 18.8758 1.05107 19.3527 1.4027 19.7043C1.75433 20.056 2.23124 20.2535 2.72852 20.2535H18.4785C18.7769 20.2535 19.063 20.135 19.274 19.924C19.485 19.713 19.6035 19.4269 19.6035 19.1285C19.6035 18.8301 19.485 18.544 19.274 18.333C19.063 18.122 18.7769 18.0035 18.4785 18.0035H9.94727L19.8051 8.14382C19.9793 7.9697 20.1175 7.76297 20.2117 7.53543C20.306 7.3079 20.3545 7.06402 20.3545 6.81772C20.3545 6.57143 20.306 6.32755 20.2117 6.10002C20.1175 5.87248 19.9793 5.66575 19.8051 5.49163ZM10.9785 6.47226L12.0098 7.50351L5.35352 14.1598L4.32227 13.1285L10.9785 6.47226ZM3.10352 18.0035V15.0973L4.55852 16.5513L6.00977 18.0035H3.10352ZM7.97852 16.7848L6.94727 15.7535L13.6035 9.09726L14.6348 10.1285L7.97852 16.7848ZM16.2285 8.53476L12.5723 4.87851L14.2916 3.15913L17.9479 6.81538L16.2285 8.53476Z" fill="#6B6B6B"/>
</svg>
