<svg width="20" height="20" viewBox="0 0 20 20" fill="none" xmlns="http://www.w3.org/2000/svg">
<path d="M17.5 0.625H2.5C2.00272 0.625 1.52581 0.822544 1.17417 1.17417C0.822544 1.52581 0.625 2.00272 0.625 2.5V17.5C0.625 17.9973 0.822544 18.4742 1.17417 18.8258C1.52581 19.1775 2.00272 19.375 2.5 19.375H17.5C17.9973 19.375 18.4742 19.1775 18.8258 18.8258C19.1775 18.4742 19.375 17.9973 19.375 17.5V2.5C19.375 2.00272 19.1775 1.52581 18.8258 1.17417C18.4742 0.822544 17.9973 0.625 17.5 0.625ZM17.125 17.125H2.875V2.875H17.125V17.125ZM5.125 10C5.125 9.70163 5.24353 9.41548 5.4545 9.2045C5.66548 8.99353 5.95163 8.875 6.25 8.875H13.75C14.0484 8.875 14.3345 8.99353 14.5455 9.2045C14.7565 9.41548 14.875 9.70163 14.875 10C14.875 10.2984 14.7565 10.5845 14.5455 10.7955C14.3345 11.0065 14.0484 11.125 13.75 11.125H6.25C5.95163 11.125 5.66548 11.0065 5.4545 10.7955C5.24353 10.5845 5.125 10.2984 5.125 10Z" fill="#8C8C8C"/>
</svg>
