<svg width="439" height="433" viewBox="0 0 439 433" fill="none" xmlns="http://www.w3.org/2000/svg">
<path d="M298.198 345.264L341.718 321.447C331.648 306.123 330.947 297.367 329.284 285.283C323.767 246.405 285.239 221.624 255.292 201.222C252.753 199.471 250.126 197.807 247.411 196.318C244.259 194.567 235.415 189.313 233.051 194.217C230.862 198.945 236.378 207.439 239.093 210.854C237.254 208.139 235.24 205.512 233.051 203.148C232.35 202.273 231.475 201.572 230.336 201.222C228.322 200.784 226.396 202.71 226.046 204.724C225.695 206.738 226.571 208.752 227.534 210.591C229.811 215.057 232.525 219.172 235.853 222.85C233.664 220.398 225.52 211.029 225.695 220.486C225.871 226.44 228.322 232.132 232.613 236.247C230.687 234.584 228.673 233.183 226.571 231.869C225.958 231.431 225.17 231.169 224.382 231.344C223.594 231.782 222.981 232.57 222.893 233.445C221.492 239.487 224.907 243.865 227.184 249.032C228.935 253.06 229.986 256.912 232.35 260.765C240.669 274.863 249.25 284.583 258.707 297.892C261.334 301.045 298.111 345.352 298.198 345.264Z" fill="white"/>
<path d="M298.286 345.877C297.848 345.877 297.06 344.914 291.894 338.697C288.391 334.494 283.663 328.89 278.934 323.111C274.468 317.769 259.933 300.169 258.357 297.98C255.204 293.514 252.052 289.399 249.075 285.458C243.121 277.578 237.517 270.135 232 260.765C230.599 258.314 229.461 255.774 228.497 253.147C227.972 251.834 227.447 250.433 226.834 248.944C226.396 247.893 225.783 246.843 225.258 245.792C223.244 241.764 221.317 237.999 222.456 233.008C222.806 231.607 223.419 230.731 224.294 230.468C225.258 230.293 226.133 230.556 226.921 231.081C227.534 231.431 228.147 231.869 228.76 232.22C226.483 228.629 225.17 224.514 225.082 220.223C225.082 217.596 225.608 216.108 226.834 215.582C227.885 215.232 229.11 215.67 230.511 216.546C229.198 214.619 228.06 212.605 227.009 210.591C226.046 208.665 225.17 206.476 225.433 204.287C225.695 202.886 226.396 201.66 227.534 200.872C228.322 200.259 229.373 200.084 230.424 200.259C231.475 200.609 232.525 201.222 233.226 202.098C232 199.12 231.3 195.968 232.438 193.604C232.876 192.553 233.751 191.853 234.802 191.502C238.305 190.364 243.909 193.429 246.886 195.092L247.586 195.443C250.301 196.931 252.928 198.595 255.467 200.434L258.97 202.798C288.128 222.675 324.38 247.28 329.721 284.933L329.984 287.034C331.473 297.98 332.698 306.561 342.068 320.834C342.155 321.009 342.155 321.184 342.155 321.359C342.068 321.535 341.98 321.622 341.805 321.71L298.461 345.79C298.461 345.877 298.373 345.877 298.286 345.877ZM224.995 231.694C224.907 231.694 224.82 231.694 224.732 231.694C224.119 231.869 223.857 232.657 223.681 233.358C222.631 237.911 224.47 241.501 226.396 245.354C226.921 246.405 227.447 247.456 227.972 248.506C228.585 249.907 229.198 251.308 229.723 252.709C230.599 255.249 231.737 257.788 233.138 260.152C238.567 269.434 244.259 276.877 250.213 284.67C253.19 288.611 256.343 292.726 259.495 297.192C262.122 300.87 295.134 340.361 298.461 344.389L341.017 321.097C331.823 306.911 330.597 298.243 329.108 287.297L328.846 285.283C323.592 248.156 287.603 223.726 258.619 204.024L255.117 201.66C252.578 199.908 250.038 198.245 247.324 196.756L246.623 196.406C243.996 195.005 238.48 191.94 235.503 192.903C234.715 193.166 234.102 193.691 233.751 194.48C232.263 197.544 234.627 202.886 237.341 207.089C238.217 208.227 239.005 209.365 239.793 210.504C239.968 210.766 239.968 211.117 239.706 211.379C239.443 211.642 239.093 211.554 238.83 211.292C238.742 211.117 237.692 209.891 236.466 207.964C235.327 206.476 234.102 204.987 232.788 203.586C232.175 202.798 231.387 202.185 230.424 201.835C229.723 201.747 229.11 201.835 228.497 202.273C227.622 202.886 227.096 203.761 226.921 204.812C226.659 206.651 227.447 208.577 228.322 210.329C230.511 214.707 233.313 218.735 236.553 222.412C236.816 222.675 236.728 223.025 236.553 223.288C236.291 223.551 235.94 223.463 235.678 223.2L235.59 223.113C230.511 217.421 228.41 216.633 227.534 216.983C226.834 217.246 226.571 218.472 226.571 220.486C226.659 226.265 229.11 231.782 233.313 235.81C233.489 236.072 233.401 236.51 233.138 236.685C232.963 236.86 232.701 236.86 232.438 236.685C230.599 235.022 228.585 233.621 226.483 232.307C225.958 231.957 225.52 231.782 224.995 231.694Z" fill="#231F20"/>
<path d="M373.153 373.197L375.78 372.934C375.78 372.934 348.197 309.188 347.234 309.713C346.271 310.239 289.792 345.089 289.792 345.089L301.964 373.197H373.153Z" fill="#231F20"/>
<path d="M373.153 373.898H302.051C301.788 373.898 301.613 373.723 301.526 373.548L289.354 345.44C289.267 345.177 289.354 344.827 289.617 344.652C291.894 343.251 346.096 309.801 347.059 309.276C347.234 309.188 347.409 309.188 347.584 309.276C348.898 309.714 364.046 344.126 376.393 372.847C376.568 373.197 376.393 373.548 376.043 373.635C375.955 373.635 375.955 373.723 375.867 373.723L373.24 373.986L373.153 373.898ZM302.401 372.672H373.065L374.904 372.497C364.747 348.942 349.511 314.53 347.146 310.589C342.943 313.129 309.231 333.969 290.668 345.44L302.401 372.672Z" fill="#231F20"/>
<path d="M281.737 329.24L197.675 308.575C194.26 307.699 192.246 304.284 193.034 300.957L237.342 121.101C238.217 117.686 241.632 115.672 244.96 116.46L329.021 137.125C332.436 138 334.45 141.415 333.662 144.743L289.355 324.599C288.566 328.014 285.152 330.115 281.737 329.24Z" fill="white"/>
<path d="M283.225 330.116C282.699 330.116 282.086 330.028 281.561 329.941L197.412 309.276C193.734 308.4 191.458 304.635 192.333 300.87L236.641 121.013C237.516 117.336 241.282 115.059 245.047 115.935L329.196 136.6C332.873 137.475 335.15 141.241 334.274 145.006L289.967 324.862C289.179 327.927 286.465 330.116 283.225 330.116ZM197.762 307.962L281.824 328.627C284.888 329.415 287.953 327.489 288.741 324.424L332.961 144.568C333.749 141.503 331.823 138.439 328.845 137.651L244.784 116.986C241.719 116.197 238.655 118.124 237.867 121.189L193.559 301.045C192.859 304.109 194.698 307.262 197.762 307.962Z" fill="#231F20"/>
<path d="M239.554 133.517L203.161 281.375L289.461 302.616L325.854 154.759L239.554 133.517Z" fill="#D1D3D4"/>
<path d="M249.338 315.055L232.876 311.027C230.774 310.501 229.548 308.4 230.074 306.298L231.65 299.994C232.175 297.892 234.277 296.666 236.378 297.192L252.84 301.22C254.942 301.745 256.168 303.847 255.642 305.948L254.066 312.253C253.541 314.267 251.439 315.58 249.338 315.055Z" fill="white"/>
<path d="M250.301 315.843C249.951 315.843 249.6 315.755 249.25 315.755L232.788 311.727C230.336 311.114 228.935 308.75 229.461 306.298L231.037 299.994C231.65 297.542 234.014 296.141 236.466 296.666L252.84 300.694C255.292 301.307 256.693 303.672 256.168 306.123L254.591 312.428C254.154 314.354 252.402 315.843 250.301 315.843ZM233.138 310.414L249.513 314.442C251.264 314.88 253.015 313.829 253.453 311.99L255.029 305.686C255.467 303.934 254.416 302.183 252.665 301.745L236.291 297.717C234.539 297.279 232.788 298.33 232.35 300.081L230.774 306.298C230.249 308.225 231.299 309.976 233.138 310.414C233.051 310.414 233.051 310.414 233.138 310.414Z" fill="#D1D3D4"/>
<path d="M300.738 139.577C300.65 139.577 300.65 139.577 300.563 139.577L276.045 133.535C275.695 133.448 275.519 133.097 275.607 132.835C275.695 132.484 276.045 132.309 276.308 132.397L300.913 138.439C301.263 138.526 301.438 138.877 301.351 139.139C301.263 139.402 301.088 139.665 300.738 139.577Z" fill="#D1D3D4"/>
<path d="M272.717 132.747H272.542L269.215 131.959C268.865 131.871 268.689 131.609 268.689 131.258C268.777 130.908 269.04 130.733 269.39 130.733H269.478L272.805 131.521C273.155 131.609 273.33 131.959 273.243 132.221C273.243 132.572 273.068 132.747 272.717 132.747Z" fill="#D1D3D4"/>
<path d="M281.123 265.231L229.811 253.322C225.258 252.272 222.456 247.718 223.506 243.165L224.382 239.487C225.433 234.934 229.986 232.132 234.54 233.183L285.852 245.091C290.405 246.142 293.207 250.696 292.156 255.249L291.281 258.927C290.23 263.392 285.677 266.282 281.123 265.231Z" fill="#231F20"/>
<path d="M283.05 266.019C282.349 266.019 281.649 265.931 281.036 265.756L229.723 253.847C224.82 252.709 221.843 247.893 222.981 242.989L223.857 239.312C224.995 234.408 229.899 231.431 234.715 232.569L286.027 244.478C290.931 245.616 293.908 250.52 292.769 255.336L291.894 259.013C290.931 263.129 287.253 266.019 283.05 266.019ZM232.613 233.532C229.023 233.532 225.871 236.072 224.995 239.574L224.119 243.252C223.156 247.455 225.783 251.658 229.986 252.621L281.299 264.53C285.502 265.493 289.705 262.866 290.668 258.663L291.544 254.986C292.507 250.782 289.88 246.579 285.677 245.616L234.364 233.795C233.839 233.62 233.226 233.532 232.613 233.532Z" fill="#231F20"/>
<path d="M243.121 242.377C242.946 242.026 242.683 241.676 242.333 241.413C241.982 241.151 241.545 240.976 241.194 240.888C240.932 240.801 240.669 240.801 240.406 240.801C240.144 240.801 239.968 240.888 239.706 240.888C239.443 240.976 239.268 241.063 239.093 241.326C238.918 241.501 238.83 241.764 238.743 242.026C238.655 242.377 238.743 242.814 238.918 243.077C239.18 243.427 239.531 243.69 239.881 243.865C240.319 244.128 240.757 244.391 241.194 244.653C241.632 244.916 242.07 245.266 242.508 245.617C242.858 245.967 243.208 246.405 243.383 246.93C243.559 247.543 243.559 248.156 243.383 248.769C243.296 249.382 243.033 249.907 242.595 250.433C242.245 250.87 241.807 251.221 241.282 251.396C240.757 251.658 240.231 251.746 239.706 251.834C239.093 251.834 238.567 251.834 237.955 251.658C237.166 251.483 236.466 251.221 235.853 250.783C235.24 250.345 234.627 249.732 234.277 249.031L236.291 247.806C236.466 248.243 236.816 248.681 237.166 249.031C237.517 249.382 237.955 249.557 238.48 249.732C238.743 249.82 239.005 249.82 239.268 249.82C239.531 249.82 239.793 249.732 240.056 249.644C240.319 249.557 240.494 249.382 240.669 249.207C240.844 249.032 241.019 248.769 241.019 248.506C241.107 248.068 241.019 247.718 240.844 247.368C240.581 247.018 240.231 246.755 239.881 246.492C239.531 246.229 239.093 245.967 238.567 245.704C238.13 245.441 237.692 245.091 237.254 244.741C236.904 244.391 236.554 243.953 236.378 243.427C236.203 242.814 236.203 242.202 236.378 241.589C236.466 240.976 236.729 240.45 237.166 240.012C237.517 239.575 237.955 239.312 238.48 239.049C239.005 238.874 239.531 238.699 240.144 238.699C240.757 238.699 241.282 238.699 241.895 238.874C242.508 239.049 243.121 239.224 243.734 239.575C244.347 239.925 244.785 240.363 245.135 240.888L243.121 242.377Z" fill="white"/>
<path d="M247.762 240.625L255.993 242.464L255.555 244.478L249.513 243.077L248.812 246.142L254.504 247.455L254.066 249.469L248.374 248.156L247.586 251.483L253.891 252.884L253.453 254.898L244.959 252.972L247.762 240.625Z" fill="white"/>
<path d="M258.357 242.99L261.247 243.69L265.099 254.198L267.201 245.003L269.39 245.529L266.588 257.875L263.786 257.262L259.845 246.404L257.656 255.861L255.467 255.336L258.357 242.99Z" fill="white"/>
<path d="M272.279 246.23L277.183 247.368C277.971 247.543 278.759 247.806 279.46 248.244C280.861 249.032 281.824 250.52 282.174 252.096C282.349 253.06 282.349 254.023 282.086 254.986C281.736 256.825 280.51 258.314 278.847 259.189C278.146 259.539 277.27 259.802 276.482 259.89C275.694 259.977 274.906 259.89 274.118 259.715L269.477 258.664L272.279 246.23ZM273.768 257.438C274.381 257.613 275.081 257.701 275.782 257.613C276.395 257.613 277.008 257.438 277.533 257.263C278.059 257 278.496 256.65 278.934 256.212C279.372 255.687 279.635 255.074 279.81 254.373C279.985 253.76 279.985 253.06 279.897 252.359C279.81 251.834 279.547 251.308 279.197 250.871C278.847 250.433 278.409 250.083 277.883 249.82C277.358 249.557 276.745 249.294 276.045 249.119L274.031 248.682L272.104 257.088L273.768 257.438Z" fill="white"/>
<path d="M331.735 302.095C331.735 302.095 323.855 236.16 316.149 228.979C306.955 220.398 298.636 214.619 297.06 219.522C295.484 224.426 294.083 232.569 306.692 241.764L304.853 258.05C304.853 258.05 292.507 266.544 298.899 293.514" fill="white"/>
<path d="M331.735 302.621C331.473 302.621 331.21 302.446 331.21 302.096C331.122 301.395 323.242 236.248 315.799 229.242C304.503 218.735 300.387 217.772 298.811 218.209C298.198 218.385 297.76 218.91 297.585 219.523C295.834 225.127 295.309 232.657 306.955 241.151C307.13 241.239 307.217 241.501 307.217 241.676L305.378 257.963C305.378 258.138 305.291 258.226 305.116 258.401C305.028 258.489 293.207 267.07 299.424 293.252C299.512 293.514 299.337 293.865 298.986 293.952C298.636 294.04 298.373 293.865 298.286 293.514C292.244 268.121 302.576 258.927 304.24 257.613L305.991 241.852C294.083 233.008 294.608 225.127 296.447 219.173C296.71 218.209 297.498 217.334 298.461 217.071C301.526 216.283 307.568 220.048 316.412 228.367C324.205 235.635 331.91 299.206 332.173 301.833C332.261 302.358 332.085 302.621 331.735 302.621Z" fill="#231F20"/>
<path d="M127.361 166.547L103.719 229.155L163.087 239.75C164.05 237.124 166.152 235.285 167.641 235.635L174.558 237.211C175.171 237.299 175.959 236.773 176.397 235.81C176.747 235.11 176.922 234.409 176.922 233.621C176.922 233.271 176.66 232.92 176.309 232.745L165.189 229.681C164.751 229.505 164.488 229.155 164.401 228.717C164.313 228.104 164.401 227.404 164.663 226.879C165.189 225.478 166.24 224.602 167.115 224.865L168.691 225.302L174.733 227.229C175.609 227.492 176.835 226.441 177.36 224.952C177.623 224.339 177.71 223.726 177.623 223.026C177.623 222.5 177.36 222.063 176.922 221.887L165.101 217.509C164.663 217.334 164.313 216.809 164.313 216.371C164.226 215.495 164.313 214.62 164.839 213.832C165.451 212.693 166.415 212.168 167.203 212.431L183.139 219.085C183.84 219.436 184.891 218.472 185.416 217.071C185.941 215.67 185.854 214.269 185.066 213.919L173.945 208.665C173.507 208.403 173.245 207.965 173.245 207.439C173.157 206.739 173.245 206.126 173.507 205.513C174.033 204.112 175.084 203.411 175.784 203.762L176.747 204.287L183.227 207.702C183.84 208.052 184.978 207.877 185.766 206.038C187.08 203.061 185.766 202.186 185.416 202.01L179.199 197.983L127.361 166.547Z" fill="white"/>
<path d="M127.361 166.547L179.024 197.72L185.241 201.748C185.591 201.923 186.905 202.886 185.591 205.775C184.978 207.176 184.19 207.614 183.577 207.614C183.402 207.614 183.139 207.527 183.052 207.439L176.572 203.937L175.609 203.411C175.521 203.324 175.346 203.324 175.171 203.324C174.47 203.324 173.682 204.024 173.332 205.163C173.069 205.775 172.982 206.476 173.069 207.089C173.069 207.614 173.332 208.052 173.77 208.315L184.891 213.569C185.591 213.919 185.766 215.32 185.241 216.721C184.803 217.947 183.927 218.822 183.227 218.822C183.139 218.822 183.052 218.822 182.964 218.735L167.028 212.08C166.852 211.992 166.765 211.992 166.59 211.992C165.714 212.08 165.014 212.693 164.663 213.481C164.225 214.269 164.05 215.145 164.138 216.02C164.138 216.546 164.488 216.984 164.926 217.159L176.747 221.537C177.185 221.712 177.448 222.237 177.448 222.675C177.535 223.288 177.448 223.989 177.185 224.602C176.66 226.003 175.696 226.966 174.821 226.966C174.733 226.966 174.646 226.966 174.558 226.966L168.516 225.039L166.94 224.602C166.852 224.602 166.765 224.514 166.677 224.602C165.889 224.602 165.014 225.477 164.576 226.703C164.313 227.316 164.225 227.929 164.313 228.542C164.313 228.98 164.663 229.418 165.101 229.505L176.222 232.57C176.572 232.745 176.835 233.095 176.835 233.446C176.922 234.234 176.747 234.934 176.309 235.635C176.047 236.335 175.346 236.861 174.646 237.036H174.47L167.553 235.46C167.465 235.46 167.29 235.46 167.203 235.46C165.714 235.46 163.875 237.211 163 239.575L103.631 228.98L127.361 166.547ZM127.361 165.409C126.923 165.409 126.485 165.671 126.31 166.109L102.668 228.717C102.581 229.067 102.581 229.418 102.756 229.68C102.931 229.943 103.193 230.206 103.544 230.206L162.912 240.801C163 240.801 163 240.801 163.087 240.801C163.525 240.801 163.963 240.538 164.138 240.1C165.014 237.824 166.502 236.685 167.29 236.685H167.378L174.295 238.174C174.47 238.174 174.558 238.262 174.733 238.174C175.959 238.087 176.922 237.298 177.448 236.16C177.973 235.284 178.148 234.321 178.061 233.27C177.973 232.395 177.448 231.694 176.66 231.432L165.626 228.454C165.626 228.367 165.626 228.367 165.539 228.279C165.451 227.842 165.539 227.404 165.714 227.053C165.889 226.441 166.239 226.003 166.765 225.74L168.341 226.178L174.383 228.017C174.558 228.104 174.821 228.104 174.996 228.104C176.397 228.104 177.71 226.791 178.411 225.039C178.674 224.251 178.761 223.463 178.674 222.588C178.674 221.712 178.061 220.836 177.272 220.486L165.451 216.108C165.451 216.02 165.364 215.933 165.364 215.758C165.276 215.145 165.451 214.532 165.714 213.919C166.064 213.306 166.502 213.043 166.59 213.043L182.526 219.698C182.789 219.786 183.052 219.873 183.227 219.873C184.453 219.873 185.591 218.822 186.292 217.071C187.08 214.97 186.729 213.043 185.416 212.518L174.383 207.176C174.383 207.176 174.295 207.089 174.295 206.826C174.208 206.388 174.295 205.863 174.47 205.425C174.558 204.987 174.908 204.55 175.259 204.287L176.222 204.725L182.614 208.14C182.964 208.315 183.314 208.402 183.665 208.402C184.278 208.402 185.679 208.14 186.642 205.863C188.218 202.273 186.554 200.872 185.854 200.434L179.637 196.406L127.974 165.233C127.711 165.409 127.536 165.321 127.361 165.409Z" fill="#231F20"/>
<path d="M145.399 219.523C145.312 219.523 145.312 219.523 145.224 219.523C145.049 219.436 144.962 219.348 144.874 219.173L127.274 168.386C127.186 168.123 127.361 167.773 127.624 167.685C127.887 167.598 128.237 167.773 128.325 168.036L145.662 218.21L177.886 197.807C178.148 197.632 178.499 197.807 178.674 198.07C178.761 198.333 178.761 198.595 178.499 198.771L145.662 219.523C145.662 219.523 145.575 219.523 145.399 219.523Z" fill="#231F20"/>
<path d="M103.719 229.68C103.544 229.68 103.369 229.593 103.193 229.418C103.018 229.155 103.106 228.805 103.369 228.63L141.196 207.177C141.459 207.001 141.809 207.089 141.984 207.352C142.159 207.614 142.072 207.965 141.809 208.14H141.721L103.894 229.593C103.894 229.68 103.806 229.68 103.719 229.68Z" fill="#231F20"/>
<path d="M163 240.363C162.737 240.363 162.562 240.188 162.474 239.925L154.594 212.955C154.506 212.693 154.681 212.343 154.944 212.255C155.207 212.167 155.557 212.343 155.644 212.605L163.525 239.575C163.613 239.838 163.438 240.188 163.175 240.275C163.175 240.363 163.087 240.363 163 240.363Z" fill="#231F20"/>
<path d="M211.51 54.5527L117.992 141.153L210.021 209.803C213.962 206.213 219.04 204.812 221.317 206.651L231.737 215.145C232.613 215.845 234.364 215.583 236.115 214.357C237.341 213.569 238.217 212.43 238.83 211.029C239.18 210.329 239.005 209.541 238.567 209.015L222.193 194.392C221.58 193.779 221.405 192.816 221.755 192.028C222.105 190.89 222.806 189.839 223.769 189.051C225.87 187.124 228.41 186.511 229.636 187.65L231.912 189.751L240.581 198.07C241.807 199.296 244.784 198.508 246.973 196.406C247.849 195.53 248.549 194.567 248.987 193.341C249.425 192.466 249.337 191.503 248.725 190.802L232.262 173.289C231.65 172.501 231.562 171.538 231.825 170.662C232.35 169.086 233.401 167.685 234.802 166.722C236.816 165.321 238.917 165.233 239.968 166.372L261.509 191.327C262.472 192.466 265.011 191.765 267.113 189.839C269.214 187.912 270.178 185.373 269.302 184.147L254.942 165.671C254.416 164.883 254.416 163.92 254.766 163.044C255.204 161.818 255.905 160.768 256.868 159.892C258.882 157.966 261.334 157.528 262.297 158.841L263.523 160.505L271.579 171.888C272.367 172.939 274.381 173.727 277.358 171.188C282.086 167.247 280.598 164.62 280.16 163.92L272.98 151.661L211.51 54.5527Z" fill="#DD5928"/>
<path d="M211.51 54.5527L273.067 151.573L280.248 163.832C280.685 164.533 282.174 167.16 277.446 171.1C276.482 172.063 275.169 172.676 273.768 172.764C272.98 172.764 272.192 172.414 271.666 171.801L263.61 160.417L262.385 158.754C262.034 158.228 261.421 157.966 260.721 157.966C259.32 158.053 257.919 158.666 256.956 159.717C255.992 160.593 255.292 161.643 254.854 162.869C254.504 163.745 254.504 164.708 255.029 165.496L269.39 183.972C270.353 185.198 269.302 187.737 267.201 189.664C266.062 190.802 264.574 191.503 262.998 191.678C262.472 191.678 261.947 191.503 261.597 191.152L240.056 166.284C239.53 165.759 238.83 165.496 238.129 165.496C236.991 165.584 235.853 165.934 234.977 166.634C233.576 167.598 232.525 168.999 232 170.575C231.65 171.45 231.825 172.414 232.438 173.202L248.9 190.714C249.425 191.503 249.6 192.466 249.162 193.254C248.725 194.392 248.024 195.443 247.148 196.319C245.923 197.632 244.171 198.42 242.42 198.595C241.807 198.595 241.194 198.42 240.756 198.07L232.088 189.751L229.811 187.65C229.373 187.299 228.848 187.037 228.235 187.124C225.345 187.475 222.981 189.401 222.018 192.115C221.667 192.904 221.843 193.867 222.455 194.48L238.83 209.103C239.355 209.628 239.443 210.416 239.093 211.117C238.567 212.43 237.604 213.656 236.378 214.444C235.502 215.145 234.452 215.583 233.313 215.583C232.876 215.583 232.438 215.495 232 215.232L221.492 206.739C220.704 206.126 219.741 205.863 218.778 205.951C216.238 205.951 212.911 207.352 210.197 209.891L118.079 141.328L211.51 54.5527ZM211.51 53.502C211.247 53.502 210.985 53.5895 210.722 53.7646L117.204 140.365C116.941 140.628 116.854 140.891 116.854 141.241C116.854 141.591 117.029 141.854 117.291 142.029L209.408 210.679C209.846 211.029 210.459 210.942 210.809 210.591C213.261 208.402 216.238 206.914 218.603 206.914C219.303 206.914 220.091 207.089 220.617 207.527L231.037 216.02C231.562 216.458 232.263 216.633 232.963 216.633C234.364 216.546 235.59 216.108 236.728 215.232C238.129 214.269 239.18 212.956 239.793 211.38C240.231 210.329 240.056 209.015 239.18 208.14L222.806 193.517C222.455 193.166 222.631 192.553 222.718 192.291C223.506 190.102 225.52 188.438 227.884 188.088C228.147 188.088 228.497 188.175 228.673 188.35L230.949 190.452L239.618 198.77C240.318 199.383 241.194 199.646 242.07 199.646C244.171 199.471 246.185 198.595 247.586 197.019C248.637 196.056 249.425 194.918 249.863 193.604C250.388 192.378 250.213 190.977 249.338 189.926L232.876 172.414C232.525 171.976 232.525 171.363 232.7 170.837C233.138 169.436 234.101 168.298 235.24 167.51C235.94 166.985 236.816 166.634 237.779 166.547C238.217 166.547 238.567 166.634 238.917 166.897L260.458 191.853C261.071 192.466 261.859 192.816 262.735 192.816C264.661 192.641 266.413 191.853 267.726 190.452C270.353 188 271.316 184.935 270.003 183.272L255.642 164.796C255.379 164.27 255.379 163.745 255.642 163.219C255.992 162.169 256.605 161.293 257.481 160.593C258.269 159.717 259.32 159.191 260.458 159.104C260.721 159.104 260.984 159.191 261.159 159.367L262.385 161.118L270.44 172.414C271.141 173.377 272.279 173.902 273.418 173.902C275.081 173.815 276.657 173.114 277.883 171.976C282.962 167.773 281.736 164.445 280.948 163.307L273.768 151.136L212.386 54.0273C212.211 53.7646 211.948 53.5895 211.598 53.502H211.51Z" fill="#231F20"/>
<path d="M197.762 159.892C197.587 159.892 197.5 159.804 197.325 159.717C197.237 159.629 197.149 159.454 197.149 159.279L210.459 57.7051C210.459 57.4424 210.809 57.1797 211.072 57.1797C211.422 57.1797 211.597 57.5299 211.597 57.7926L198.463 158.666L271.316 151.223C271.666 151.223 271.841 151.486 271.929 151.749C271.929 152.011 271.754 152.274 271.491 152.274L197.937 159.717L197.762 159.892Z" fill="#231F20"/>
<path d="M117.992 141.766C117.729 141.766 117.466 141.504 117.466 141.241C117.466 140.978 117.729 140.716 117.992 140.628L200.739 136.25C201.002 136.25 201.265 136.425 201.352 136.688C201.352 136.688 201.352 136.688 201.352 136.775C201.352 137.125 201.177 137.388 200.827 137.388L117.992 141.766Z" fill="#231F20"/>
<path d="M210.022 210.328H209.934C209.671 210.241 209.409 209.978 209.496 209.716L219.041 157.002C219.128 156.739 219.391 156.477 219.654 156.564C219.916 156.652 220.179 156.915 220.091 157.177L210.547 209.891C210.547 210.153 210.284 210.328 210.022 210.328Z" fill="#231F20"/>
<path d="M250.388 224.864C250.301 224.864 250.126 224.864 250.038 224.777L198.988 187.562C198.726 187.387 198.726 187.037 198.901 186.774C199.076 186.511 199.426 186.511 199.689 186.687L250.739 223.901C251.001 224.076 251.089 224.427 250.826 224.689C250.739 224.777 250.564 224.864 250.388 224.864Z" fill="white"/>
<path d="M257.393 210.329C257.218 210.329 257.131 210.241 256.955 210.153L240.056 192.466C239.881 192.203 239.881 191.853 240.056 191.677C240.318 191.502 240.669 191.502 240.844 191.677L257.744 209.365C257.919 209.541 257.919 209.978 257.744 210.153C257.744 210.329 257.568 210.329 257.393 210.329Z" fill="white"/>
<path d="M268.514 209.103C268.339 209.103 268.251 209.016 268.076 208.928L257.656 198.158C257.481 197.983 257.481 197.545 257.656 197.37C257.831 197.195 258.182 197.107 258.444 197.37L268.864 208.14C269.04 208.315 269.127 208.665 268.864 208.928C268.777 209.016 268.689 209.103 268.514 209.103Z" fill="white"/>
<path d="M278.584 203.674C278.409 203.674 278.234 203.587 278.146 203.499C268.339 190.977 253.366 172.151 252.665 171.363C252.402 171.188 252.315 170.925 252.49 170.663C252.49 170.663 252.49 170.663 252.49 170.575C252.665 170.312 253.015 170.225 253.278 170.4C253.891 170.75 269.653 190.802 279.022 202.711C279.197 202.974 279.197 203.324 278.934 203.499C278.759 203.674 278.672 203.674 278.584 203.674Z" fill="white"/>
<path d="M255.905 218.647C255.817 218.647 255.642 218.647 255.555 218.56L245.31 211.029C245.047 210.941 244.872 210.591 245.047 210.329C245.135 210.066 245.485 209.891 245.748 210.066C245.835 210.066 245.923 210.153 245.923 210.241L256.168 217.771C256.43 217.947 256.518 218.297 256.255 218.56C256.255 218.56 256.08 218.647 255.905 218.647Z" fill="white"/>
<path d="M283.137 185.286C282.962 185.286 282.787 185.198 282.699 185.023L268.864 163.92C268.689 163.658 268.777 163.307 269.039 163.132C269.302 162.957 269.652 163.045 269.827 163.307L283.663 184.41C283.838 184.673 283.75 185.023 283.487 185.198C283.312 185.198 283.225 185.286 283.137 185.286Z" fill="white"/>
<path d="M251.264 64.0095L213.086 83.7989L236.904 114.359C238.48 113.571 240.319 113.571 240.844 114.359L243.471 118.036C243.646 118.387 244.259 118.387 244.959 118.124C245.397 117.949 245.835 117.686 246.098 117.336C246.273 117.161 246.273 116.898 246.185 116.635L242.157 110.418C241.982 110.156 242.07 109.805 242.245 109.63C242.508 109.28 242.77 109.017 243.121 108.842C243.996 108.404 244.872 108.404 245.135 108.93L245.66 109.805L247.761 113.308C248.024 113.833 249.075 113.833 249.951 113.308C250.301 113.133 250.651 112.87 250.914 112.52C251.089 112.257 251.176 111.907 251.089 111.644L247.324 104.464C247.236 104.201 247.236 103.851 247.411 103.588C247.761 103.151 248.199 102.8 248.725 102.538C249.513 102.275 250.213 102.45 250.388 102.888L255.117 112.87C255.292 113.308 256.168 113.308 257.043 112.87C257.919 112.432 258.444 111.644 258.269 111.206L255.204 103.939C255.117 103.676 255.204 103.326 255.379 103.063C255.642 102.713 255.992 102.45 256.343 102.275C257.218 101.837 258.006 101.925 258.182 102.45L258.444 103.063L260.02 107.441C260.196 107.879 260.808 108.229 261.947 107.704C263.786 106.828 263.611 105.865 263.523 105.602L262.297 101.049L251.264 64.0095Z" fill="white"/>
<path d="M251.264 64.0097L262.56 101.049L263.786 105.69C263.873 105.953 264.136 106.916 262.209 107.792C261.859 107.967 261.596 108.054 261.246 108.054C260.808 108.054 260.458 107.879 260.283 107.529L258.707 103.151L258.444 102.538C258.269 102.275 258.006 102.1 257.656 102.1C257.306 102.1 256.956 102.187 256.605 102.363C256.255 102.538 255.905 102.8 255.642 103.151C255.467 103.413 255.379 103.764 255.467 104.026L258.444 111.207C258.619 111.644 258.094 112.432 257.218 112.87C256.868 113.045 256.43 113.221 255.992 113.221C255.73 113.221 255.379 113.133 255.204 112.87L250.476 102.888C250.301 102.538 249.863 102.363 249.513 102.363C249.25 102.363 248.987 102.45 248.812 102.538C248.287 102.713 247.849 103.063 247.499 103.589C247.324 103.851 247.236 104.201 247.411 104.464L251.176 111.644C251.264 111.907 251.264 112.257 251.001 112.52C250.738 112.87 250.476 113.133 250.038 113.308C249.6 113.571 249.162 113.658 248.725 113.658C248.374 113.658 248.024 113.571 247.849 113.308L245.747 109.806L245.222 108.93C245.047 108.667 244.697 108.492 244.346 108.58C243.909 108.58 243.558 108.667 243.208 108.93C242.858 109.105 242.508 109.368 242.332 109.718C242.157 109.981 242.157 110.243 242.245 110.506L246.273 116.723C246.36 116.986 246.36 117.248 246.185 117.424C245.922 117.774 245.485 118.124 245.047 118.212C244.784 118.299 244.521 118.387 244.259 118.387C243.996 118.387 243.733 118.299 243.558 118.124L240.931 114.446C240.494 114.009 239.968 113.746 239.355 113.833C238.567 113.833 237.691 114.096 236.991 114.446L213.174 83.8867L251.264 64.0097ZM251.264 62.8713C251.089 62.8713 250.914 62.9589 250.739 63.0465L212.561 82.8359C212.035 83.0986 211.773 83.7991 212.123 84.3245C212.123 84.412 212.21 84.412 212.21 84.4996L236.028 115.059C236.203 115.322 236.553 115.497 236.903 115.497C237.079 115.497 237.254 115.41 237.429 115.41C237.954 115.147 238.655 114.972 239.268 114.884C239.53 114.884 239.793 114.884 239.968 115.059L242.595 118.737C242.945 119.262 243.646 119.525 244.259 119.525C244.609 119.525 245.047 119.438 245.397 119.35C246.098 119.087 246.711 118.649 247.148 118.124C247.586 117.599 247.586 116.811 247.236 116.198L243.383 110.331C243.646 110.068 243.996 109.893 244.434 109.893L244.872 110.594L246.973 114.096C247.411 114.709 248.112 115.059 248.812 115.059C249.425 115.059 250.126 114.884 250.651 114.534C251.176 114.271 251.614 113.833 251.964 113.396C252.402 112.783 252.49 112.082 252.14 111.382L248.462 104.377C248.637 104.114 248.9 103.939 249.162 103.851C249.25 103.851 249.425 103.764 249.513 103.764L254.241 113.658C254.591 114.271 255.292 114.709 255.992 114.622C256.605 114.622 257.218 114.446 257.744 114.184C259.145 113.396 259.933 112.17 259.495 111.119L256.518 104.026C256.693 103.851 256.868 103.676 257.043 103.589C257.131 103.501 257.306 103.501 257.481 103.413L257.656 103.764L259.232 108.142C259.582 108.93 260.371 109.455 261.246 109.455C261.772 109.455 262.297 109.28 262.735 109.105C265.362 107.879 265.011 106.128 264.924 105.69L263.698 101.137L252.402 64.0097C252.14 63.2216 251.702 62.8713 251.264 62.8713Z" fill="#231F20"/>
<path d="M262.034 101.487H261.947L237.341 97.3716C237.166 97.3716 236.991 97.1965 236.904 97.1089C236.816 96.9338 236.816 96.7586 236.904 96.5835L250.301 64.7978C250.388 64.5351 250.739 64.36 251.001 64.4476C251.264 64.5351 251.439 64.8854 251.352 65.1481C251.352 65.1481 251.352 65.2357 251.264 65.2357L238.129 96.4084L262.034 100.436C262.297 100.524 262.56 100.787 262.472 101.049C262.472 101.312 262.209 101.575 262.034 101.487Z" fill="#231F20"/>
<path d="M240.406 90.2789H240.319L212.999 84.3245C212.736 84.237 212.473 83.9743 212.561 83.7116C212.648 83.4489 212.911 83.1862 213.261 83.2738L240.581 89.2281C240.844 89.3157 241.107 89.5784 241.019 89.9286C240.844 90.1037 240.669 90.2789 240.406 90.2789Z" fill="#231F20"/>
<path d="M236.904 114.885C236.816 114.885 236.728 114.885 236.641 114.797C236.378 114.71 236.203 114.359 236.378 114.097L244.171 97.8097C244.346 97.5471 244.609 97.3719 244.959 97.5471C245.222 97.7222 245.397 97.9849 245.222 98.3351L237.429 114.622C237.254 114.797 237.079 114.885 236.904 114.885Z" fill="#231F20"/>
<path d="M99.1663 326.263C99.1663 326.263 123.772 278.628 142.248 257.088C144.787 254.11 148.027 253.673 150.304 255.161C153.018 256.912 153.106 262.954 153.106 262.954C153.106 262.954 160.111 258.926 163.526 259.802C166.941 260.678 167.291 265.931 167.291 265.931C167.291 265.931 174.821 263.48 177.886 266.107C180.951 268.733 181.038 273.55 181.038 273.55C181.038 273.55 220.617 242.202 224.908 239.575C229.286 236.948 237.079 241.676 233.226 247.193C230.862 250.695 210.81 270.222 204.418 276.527C198.026 282.831 182.877 299.644 181.214 304.635C179.55 309.626 178.061 315.23 188.394 315.93C198.726 316.631 207.833 318.47 212.299 322.147C216.764 325.825 219.742 331.604 217.465 332.655C215.188 333.706 178.937 329.678 165.189 335.194C151.442 340.711 133.491 360.938 133.491 360.938L99.1663 326.263Z" fill="white"/>
<path d="M133.491 361.638C133.316 361.638 133.141 361.551 133.053 361.463L98.7279 326.701C98.5528 326.525 98.4653 326.263 98.6404 326C98.9031 325.562 123.509 278.015 141.809 256.737C144.436 253.76 147.939 252.884 150.653 254.723C152.93 256.212 153.455 260.152 153.63 261.991C155.644 260.94 160.723 258.488 163.613 259.189C166.502 259.889 167.466 263.479 167.728 265.056C169.742 264.53 175.434 263.217 178.236 265.581C180.6 267.595 181.301 270.66 181.563 272.323C187.605 267.507 220.617 241.413 224.645 239.049C227.534 237.298 231.475 238.524 233.401 240.625C235.24 242.552 235.415 245.529 233.751 247.543C231.3 251.045 211.685 270.309 204.855 276.964C198.113 283.444 183.402 300.081 181.826 304.81C180.863 307.612 179.987 310.589 181.388 312.603C182.439 314.179 184.803 315.055 188.481 315.317C200.477 316.105 208.621 318.294 212.736 321.709C216.414 324.774 219.216 329.24 218.866 331.604C218.778 332.305 218.428 332.918 217.815 333.268C217.027 333.706 214.049 333.53 207.395 333.268C195.223 332.83 174.821 332.042 165.452 335.807C151.967 341.236 134.104 361.201 133.929 361.463C133.753 361.551 133.578 361.638 133.491 361.638ZM99.9538 326.175L133.491 360.15C136.38 356.998 152.229 339.835 165.014 334.669C174.646 330.816 195.223 331.604 207.482 332.042C212.211 332.217 216.589 332.392 217.289 332.129C217.552 331.954 217.727 331.692 217.727 331.429C217.902 329.678 215.626 325.65 211.948 322.585C208.008 319.345 200.127 317.331 188.393 316.456C184.278 316.193 181.651 315.142 180.425 313.216C178.761 310.764 179.637 307.524 180.775 304.372C182.614 299.03 198.113 281.868 204.155 276.001C210.722 269.696 230.599 250.17 232.876 246.755C234.627 244.215 233.489 242.289 232.613 241.326C230.949 239.575 227.622 238.611 225.345 240.012C221.055 242.639 181.914 273.637 181.476 273.987C181.301 274.162 181.038 274.162 180.863 274.075C180.688 273.987 180.513 273.724 180.513 273.549C180.513 273.462 180.425 268.996 177.535 266.544C174.646 264.092 167.553 266.457 167.553 266.457C167.203 266.544 166.853 266.369 166.765 266.106C166.765 266.019 166.765 266.019 166.765 265.931C166.765 265.844 166.415 261.115 163.438 260.415C160.898 259.802 155.382 262.429 153.455 263.567C153.105 263.742 152.755 263.567 152.667 263.217C152.667 263.129 152.58 263.042 152.58 263.042C152.58 261.465 152.054 257.087 150.04 255.774C147.851 254.373 144.962 255.073 142.86 257.525C125.435 277.665 102.406 321.534 99.9538 326.175Z" fill="#231F20"/>
<path d="M138.219 373.197L151.617 349.204C151.617 349.204 100.129 312.953 99.166 312.427C98.2028 311.902 63.4399 372.846 63.4399 372.846L66.0669 373.109L138.219 373.197Z" fill="#231F20"/>
<path d="M138.219 373.897H66.1544L63.4399 373.635C63.2648 373.635 63.0897 373.459 62.9145 373.284C62.827 373.109 62.827 372.847 62.9145 372.671C63.0021 372.496 71.6709 357.26 80.4273 342.287C98.3779 311.377 98.7281 311.639 99.4287 311.99C100.392 312.515 146.626 345.089 151.967 348.766C152.23 348.942 152.317 349.292 152.142 349.555L138.745 373.547C138.657 373.722 138.482 373.897 138.219 373.897ZM64.4907 372.409L66.242 372.584H137.869L150.829 349.467C133.929 337.558 103.019 315.842 99.2535 313.303C96.5391 316.806 77.3626 349.817 64.4907 372.409Z" fill="#231F20"/>
</svg>
