<svg width="24" height="25" viewBox="0 0 24 25" fill="none" xmlns="http://www.w3.org/2000/svg">
<path d="M21.5766 7.11321L17.3869 2.92446C17.0353 2.57295 16.5584 2.37549 16.0613 2.37549C15.5641 2.37549 15.0872 2.57295 14.7356 2.92446L3.17438 14.4848C2.99968 14.6584 2.86116 14.865 2.76686 15.0925C2.67255 15.3201 2.62434 15.5641 2.62501 15.8104V20.0001C2.62501 20.4974 2.82255 20.9743 3.17418 21.3259C3.52581 21.6775 4.00273 21.8751 4.50001 21.8751H20.25C20.5484 21.8751 20.8345 21.7566 21.0455 21.5456C21.2565 21.3346 21.375 21.0485 21.375 20.7501C21.375 20.4517 21.2565 20.1656 21.0455 19.9546C20.8345 19.7436 20.5484 19.6251 20.25 19.6251H11.7188L21.5766 9.7654C21.7508 9.59128 21.8889 9.38455 21.9832 9.15701C22.0775 8.92948 22.126 8.6856 22.126 8.43931C22.126 8.19301 22.0775 7.94913 21.9832 7.7216C21.8889 7.49406 21.7508 7.28733 21.5766 7.11321ZM12.75 8.09384L13.7813 9.12509L7.12501 15.7813L6.09376 14.7501L12.75 8.09384ZM4.87501 19.6251V16.7188L6.33001 18.1729L7.78126 19.6251H4.87501ZM9.75001 18.4063L8.71876 17.3751L15.375 10.7188L16.4063 11.7501L9.75001 18.4063ZM18 10.1563L14.3438 6.50009L16.0631 4.78071L19.7194 8.43696L18 10.1563Z" fill="#6B6B6B"/>
</svg>
