<svg width="16" height="16" viewBox="0 0 16 16" fill="none" xmlns="http://www.w3.org/2000/svg">
<path d="M15.5 9.75V14.75C15.5 14.9158 15.4342 15.0747 15.3169 15.1919C15.1997 15.3092 15.0408 15.375 14.875 15.375H1.125C0.95924 15.375 0.800269 15.3092 0.683058 15.1919C0.565848 15.0747 0.5 14.9158 0.5 14.75V9.75C0.5 9.58424 0.565848 9.42527 0.683058 9.30806C0.800269 9.19085 0.95924 9.125 1.125 9.125C1.29076 9.125 1.44973 9.19085 1.56694 9.30806C1.68415 9.42527 1.75 9.58424 1.75 9.75V14.125H14.25V9.75C14.25 9.58424 14.3158 9.42527 14.4331 9.30806C14.5503 9.19085 14.7092 9.125 14.875 9.125C15.0408 9.125 15.1997 9.19085 15.3169 9.30806C15.4342 9.42527 15.5 9.58424 15.5 9.75ZM5.31719 4.56719L7.375 2.5086V9.75C7.375 9.91576 7.44085 10.0747 7.55806 10.1919C7.67527 10.3092 7.83424 10.375 8 10.375C8.16576 10.375 8.32473 10.3092 8.44194 10.1919C8.55915 10.0747 8.625 9.91576 8.625 9.75V2.5086L10.6828 4.56719C10.8001 4.68447 10.9591 4.75035 11.125 4.75035C11.2909 4.75035 11.4499 4.68447 11.5672 4.56719C11.6845 4.44992 11.7503 4.29086 11.7503 4.125C11.7503 3.95915 11.6845 3.80009 11.5672 3.68282L8.44219 0.557816C8.38414 0.499706 8.31521 0.453606 8.23934 0.422153C8.16346 0.390701 8.08213 0.374512 8 0.374512C7.91787 0.374512 7.83654 0.390701 7.76066 0.422153C7.68479 0.453606 7.61586 0.499706 7.55781 0.557816L4.43281 3.68282C4.31554 3.80009 4.24965 3.95915 4.24965 4.125C4.24965 4.29086 4.31554 4.44992 4.43281 4.56719C4.55009 4.68447 4.70915 4.75035 4.875 4.75035C5.04085 4.75035 5.19991 4.68447 5.31719 4.56719Z" fill="black"/>
</svg>
